<svg width="18" height="15" viewBox="0 0 18 15" fill="none" xmlns="http://www.w3.org/2000/svg">
<path fill-rule="evenodd" clip-rule="evenodd" d="M17 7.5C17 10.9269 13.5967 14 9 14C4.40326 14 1 10.9269 1 7.5C1 4.07312 4.40326 1 9 1C10.0778 1 11.09 1.16895 12.0081 1.47179C12.0027 1.52469 12 1.57827 12 1.63239V1.69862C12 2.17254 12.2019 2.62589 12.5577 2.94907L14.6754 4.87554C14.7633 4.95547 14.8793 5 15 5C15.1207 5 15.2367 4.95547 15.3246 4.87554L15.9548 4.30225C16.6246 5.26273 17 6.36185 17 7.5ZM12.4136 0.558272C12.6613 0.281863 13.0045 0.0863397 13.3992 0.0222416C13.923 -0.0644322 14.4773 0.105261 14.8594 0.478108L15 0.614913L15.1301 0.478108C15.5226 0.105261 16.0664 -0.0644322 16.6008 0.0222416C17.4082 0.153336 18 0.834168 18 1.63239V1.69862C18 2.17254 17.7984 2.62589 17.4422 2.94907L16.704 3.62059C17.5266 4.75248 18 6.08016 18 7.5C18 11.6421 13.9706 15 9 15C4.02944 15 0 11.6421 0 7.5C0 3.35786 4.02944 0 9 0C10.2083 0 11.3609 0.198413 12.4136 0.558272ZM5.496 6.842C5.52 6.95 5.55 7.104 5.586 7.304C5.626 7.5 5.666 7.718 5.706 7.958C5.75 8.194 5.794 8.438 5.838 8.69C5.882 8.938 5.922 9.166 5.958 9.374C6.094 9.166 6.242 8.942 6.402 8.702C6.562 8.462 6.72 8.226 6.876 7.994C7.032 7.762 7.18 7.546 7.32 7.346C7.46 7.142 7.58 6.974 7.68 6.842H8.508C8.48 7.118 8.442 7.428 8.394 7.772C8.35 8.116 8.298 8.472 8.238 8.84C8.182 9.208 8.122 9.578 8.058 9.95C7.994 10.322 7.93 10.672 7.866 11H6.954C7.038 10.592 7.126 10.152 7.218 9.68C7.314 9.204 7.402 8.724 7.482 8.24C7.378 8.404 7.262 8.588 7.134 8.792C7.006 8.992 6.878 9.196 6.75 9.404C6.622 9.608 6.498 9.804 6.378 9.992C6.258 10.18 6.154 10.34 6.066 10.472H5.382C5.362 10.352 5.338 10.2 5.31 10.016C5.282 9.832 5.25 9.638 5.214 9.434C5.182 9.226 5.148 9.018 5.112 8.81C5.076 8.598 5.042 8.408 5.01 8.24C4.854 8.724 4.712 9.204 4.584 9.68C4.46 10.152 4.344 10.592 4.236 11H3.33C3.422 10.672 3.522 10.322 3.63 9.95C3.742 9.578 3.856 9.208 3.972 8.84C4.092 8.468 4.21 8.11 4.326 7.766C4.442 7.422 4.552 7.114 4.656 6.842H5.496ZM8.66758 10.176C8.66758 10.0053 8.69691 9.84 8.75558 9.68C8.81691 9.52 8.90224 9.37867 9.01158 9.256C9.12091 9.13067 9.25291 9.03067 9.40758 8.956C9.56491 8.87867 9.73825 8.84 9.92758 8.84C10.0209 8.84 10.1076 8.85333 10.1876 8.88C10.2676 8.90667 10.3369 8.94533 10.3956 8.996C10.4569 9.04667 10.5036 9.10933 10.5356 9.184C10.5702 9.256 10.5876 9.33867 10.5876 9.432C10.5876 9.58133 10.5542 9.708 10.4876 9.812C10.4209 9.916 10.3276 10.0013 10.2076 10.068C10.0902 10.132 9.95024 10.1787 9.78758 10.208C9.62491 10.2373 9.44758 10.252 9.25558 10.252C9.27425 10.364 9.31425 10.444 9.37558 10.492C9.43958 10.5373 9.53958 10.56 9.67558 10.56C9.76091 10.56 9.84758 10.5533 9.93558 10.54C10.0236 10.524 10.1062 10.5013 10.1836 10.472L10.2276 10.94C10.1529 10.9693 10.0569 10.996 9.93958 11.02C9.82491 11.044 9.69958 11.056 9.56358 11.056C9.39824 11.056 9.25824 11.0333 9.14358 10.988C9.03158 10.94 8.93958 10.876 8.86758 10.796C8.79824 10.716 8.74758 10.6227 8.71558 10.516C8.68358 10.4093 8.66758 10.296 8.66758 10.176ZM9.83158 9.312C9.69558 9.312 9.57558 9.36133 9.47158 9.46C9.37024 9.556 9.30358 9.684 9.27158 9.844C9.43691 9.83867 9.57024 9.82533 9.67158 9.804C9.77291 9.78 9.85158 9.752 9.90758 9.72C9.96358 9.688 10.0009 9.65333 10.0196 9.616C10.0382 9.57867 10.0476 9.54133 10.0476 9.504C10.0476 9.376 9.97558 9.312 9.83158 9.312ZM10.7887 10.176C10.7887 10.0053 10.818 9.84 10.8767 9.68C10.938 9.52 11.0233 9.37867 11.1327 9.256C11.242 9.13067 11.374 9.03067 11.5287 8.956C11.686 8.87867 11.8593 8.84 12.0487 8.84C12.142 8.84 12.2287 8.85333 12.3087 8.88C12.3887 8.90667 12.458 8.94533 12.5167 8.996C12.578 9.04667 12.6247 9.10933 12.6567 9.184C12.6913 9.256 12.7087 9.33867 12.7087 9.432C12.7087 9.58133 12.6753 9.708 12.6087 9.812C12.542 9.916 12.4487 10.0013 12.3287 10.068C12.2113 10.132 12.0713 10.1787 11.9087 10.208C11.746 10.2373 11.5687 10.252 11.3767 10.252C11.3953 10.364 11.4353 10.444 11.4967 10.492C11.5607 10.5373 11.6607 10.56 11.7967 10.56C11.882 10.56 11.9687 10.5533 12.0567 10.54C12.1447 10.524 12.2273 10.5013 12.3047 10.472L12.3487 10.94C12.274 10.9693 12.178 10.996 12.0607 11.02C11.946 11.044 11.8207 11.056 11.6847 11.056C11.5193 11.056 11.3793 11.0333 11.2647 10.988C11.1527 10.94 11.0607 10.876 10.9887 10.796C10.9193 10.716 10.8687 10.6227 10.8367 10.516C10.8047 10.4093 10.7887 10.296 10.7887 10.176ZM11.9527 9.312C11.8167 9.312 11.6967 9.36133 11.5927 9.46C11.4913 9.556 11.4247 9.684 11.3927 9.844C11.558 9.83867 11.6913 9.82533 11.7927 9.804C11.894 9.78 11.9727 9.752 12.0287 9.72C12.0847 9.688 12.122 9.65333 12.1407 9.616C12.1593 9.57867 12.1687 9.54133 12.1687 9.504C12.1687 9.376 12.0967 9.312 11.9527 9.312ZM13.5748 7.715L14.3498 7.595L14.1598 8.37H14.9898L14.8398 8.98H14.0148L13.7948 9.9C13.7748 9.97667 13.7614 10.0483 13.7548 10.115C13.7514 10.1817 13.7598 10.24 13.7798 10.29C13.8031 10.3367 13.8414 10.3733 13.8948 10.4C13.9481 10.4267 14.0214 10.44 14.1148 10.44C14.1948 10.44 14.2714 10.4333 14.3448 10.42C14.4214 10.4033 14.4981 10.3817 14.5748 10.355L14.6298 10.925C14.5298 10.9617 14.4214 10.9933 14.3048 11.02C14.1881 11.0467 14.0498 11.06 13.8898 11.06C13.6598 11.06 13.4814 11.0267 13.3548 10.96C13.2281 10.89 13.1381 10.7967 13.0848 10.68C13.0314 10.56 13.0081 10.4233 13.0148 10.27C13.0214 10.1167 13.0448 9.955 13.0848 9.785L13.5748 7.715ZM5 6C5.55228 6 6 5.55228 6 5C6 4.44772 5.55228 4 5 4C4.44772 4 4 4.44772 4 5C4 5.55228 4.44772 6 5 6ZM9 5C9 5.55228 8.55229 6 8 6C7.44772 6 7 5.55228 7 5C7 4.44772 7.44772 4 8 4C8.55229 4 9 4.44772 9 5Z" fill="#FBB6CE"/>
</svg>
