<svg width="360" height="302" viewBox="0 0 360 302" fill="none" xmlns="http://www.w3.org/2000/svg">
<path fill-rule="evenodd" clip-rule="evenodd" d="M300.016 26.5844C304.692 26.4295 309.49 26.9568 314.41 28.1665C319.331 29.376 322.735 31.445 324.624 34.3732C326.65 37.335 327.259 40.4562 326.453 43.7364C325.478 47.7 323.306 50.9343 319.938 53.4395C316.601 55.808 312.975 58.1775 309.058 60.5484C306.334 62.1976 303.662 63.9319 301.04 65.7514C298.418 67.5709 295.952 69.6458 293.64 71.9762C291.497 74.2033 289.562 76.7712 287.833 79.6795C286.136 82.4512 284.818 85.7504 283.877 89.5773L282.769 94.0877C282.502 95.7614 282.338 97.3152 282.276 98.7492L309.337 105.402C309.402 104.548 309.569 103.575 309.837 102.481L310.443 100.021C311.014 97.6977 312.046 95.5601 313.541 93.6085C315.069 91.5203 316.768 89.619 318.638 87.9049C320.646 86.2244 322.756 84.7141 324.97 83.374C327.217 81.8974 329.363 80.5406 331.405 79.3037C334.13 77.6545 336.956 75.8854 339.884 73.9964C342.814 72.1075 345.501 70.0146 347.95 67.7179C350.399 65.4211 352.557 62.8354 354.422 59.9607C356.46 56.9829 357.948 53.5804 358.889 49.7535C359.83 45.9266 360.137 41.7267 359.812 37.1537C359.624 32.6144 358.327 28.1647 355.92 23.8048C353.513 19.4448 349.725 15.3975 344.555 11.6629C339.523 7.96176 332.634 5.03604 323.887 2.88566C316.916 1.17207 309.573 0.381616 301.859 0.514304C294.179 0.510306 287.253 1.56157 281.083 3.66807L283.999 28.9514C290.001 27.5282 295.34 26.7393 300.016 26.5844ZM298.753 148.455C303.523 146.15 306.648 141.989 308.126 135.975C309.603 129.962 308.764 124.828 305.608 120.573C302.586 116.352 298.616 113.637 293.696 112.427C288.775 111.217 283.93 111.766 279.16 114.071C274.527 116.411 271.472 120.587 269.992 126.601C268.515 132.616 269.285 137.733 272.307 141.954C275.463 146.208 279.502 148.94 284.422 150.15C289.343 151.359 294.119 150.794 298.753 148.455ZM73.769 199.486C73.294 196.847 72.8981 194.815 72.5815 193.39H61.4978C60.1255 196.979 58.6741 201.043 57.1435 205.582C55.6129 210.121 54.0559 214.845 52.4725 219.753C50.9419 224.609 49.4377 229.491 47.9598 234.399C46.5348 239.308 45.2153 243.926 44.0014 248.254H55.9559C57.381 242.87 58.9116 237.065 60.5477 230.837C62.2367 224.556 64.1104 218.222 66.1688 211.836C66.591 214.053 67.0396 216.56 67.5146 219.357C67.9896 222.102 68.4383 224.846 68.8605 227.591C69.3355 230.283 69.7578 232.842 70.1272 235.27C70.4967 237.698 70.8133 239.704 71.0772 241.287H80.1025C81.2637 239.545 82.6359 237.434 84.2193 234.954C85.8027 232.473 87.4389 229.887 89.1278 227.195C90.8168 224.45 92.5057 221.759 94.1946 219.12C95.8836 216.428 97.4142 214 98.7865 211.836C97.7309 218.222 96.5697 224.556 95.303 230.837C94.0891 237.065 92.9279 242.87 91.8196 248.254H103.853C104.698 243.926 105.542 239.308 106.387 234.399C107.231 229.491 108.023 224.609 108.762 219.753C109.553 214.897 110.24 210.2 110.82 205.661C111.454 201.122 111.955 197.032 112.324 193.39H101.399C100.08 195.131 98.4962 197.348 96.6489 200.04C94.8016 202.679 92.8488 205.529 90.7904 208.59C88.732 211.651 86.6472 214.765 84.536 217.932C82.4248 221.099 80.472 224.055 78.6775 226.799C78.2025 224.055 77.6747 221.046 77.0941 217.774C76.5135 214.449 75.933 211.229 75.3524 208.115C74.8246 204.948 74.2968 202.072 73.769 199.486ZM115.591 230.837C114.817 232.948 114.43 235.129 114.43 237.381C114.43 238.965 114.641 240.46 115.063 241.868C115.486 243.276 116.154 244.507 117.069 245.562C118.019 246.618 119.233 247.462 120.711 248.096C122.224 248.693 124.071 248.993 126.253 248.993C128.047 248.993 129.701 248.835 131.214 248.518C132.762 248.201 134.029 247.849 135.014 247.462L134.434 241.287C133.412 241.674 132.323 241.973 131.161 242.184C130 242.36 128.856 242.448 127.73 242.448C125.936 242.448 124.616 242.149 123.772 241.551C122.963 240.918 122.435 239.862 122.189 238.384C124.722 238.384 127.062 238.19 129.208 237.804C131.355 237.417 133.201 236.801 134.75 235.956C136.334 235.076 137.565 233.951 138.445 232.579C139.324 231.206 139.764 229.534 139.764 227.564C139.764 226.333 139.535 225.242 139.078 224.292C138.656 223.306 138.04 222.48 137.231 221.811C136.456 221.143 135.542 220.633 134.486 220.281C133.431 219.929 132.287 219.753 131.056 219.753C128.557 219.753 126.27 220.264 124.194 221.284C122.153 222.269 120.412 223.589 118.969 225.242C117.526 226.861 116.4 228.726 115.591 230.837ZM125.039 227.934C126.411 226.632 127.994 225.981 129.789 225.981C131.689 225.981 132.639 226.826 132.639 228.514C132.639 229.007 132.515 229.5 132.27 229.992C132.023 230.484 131.531 230.942 130.792 231.365C130.053 231.787 129.015 232.156 127.678 232.473C126.34 232.754 124.581 232.931 122.4 233.001C122.822 230.89 123.702 229.201 125.039 227.934ZM143.579 230.837C142.805 232.948 142.418 235.129 142.418 237.381C142.418 238.965 142.629 240.46 143.051 241.868C143.473 243.276 144.141 244.507 145.057 245.562C146.007 246.618 147.221 247.462 148.699 248.096C150.211 248.693 152.058 248.993 154.24 248.993C156.035 248.993 157.688 248.835 159.202 248.518C160.75 248.201 162.016 247.849 163.002 247.462L162.421 241.287C161.4 241.674 160.31 241.973 159.149 242.184C157.988 242.36 156.844 242.448 155.718 242.448C153.924 242.448 152.604 242.149 151.76 241.551C150.95 240.918 150.422 239.862 150.176 238.384C152.71 238.384 155.049 238.19 157.196 237.804C159.342 237.417 161.189 236.801 162.738 235.956C164.321 235.076 165.552 233.951 166.433 232.579C167.311 231.206 167.752 229.534 167.752 227.564C167.752 226.333 167.522 225.242 167.066 224.292C166.644 223.306 166.027 222.48 165.219 221.811C164.444 221.143 163.53 220.633 162.474 220.281C161.418 219.929 160.275 219.753 159.043 219.753C156.544 219.753 154.258 220.264 152.182 221.284C150.141 222.269 148.399 223.589 146.957 225.242C145.513 226.861 144.388 228.726 143.579 230.837ZM153.027 227.934C154.399 226.632 155.982 225.981 157.777 225.981C159.677 225.981 160.627 226.826 160.627 228.514C160.627 229.007 160.503 229.5 160.257 229.992C160.011 230.484 159.518 230.942 158.78 231.365C158.041 231.787 157.002 232.156 155.666 232.473C154.328 232.754 152.569 232.931 150.388 233.001C150.81 230.89 151.689 229.201 153.027 227.934ZM189.406 203.325L179.18 204.909L172.715 232.222C172.187 234.465 171.878 236.599 171.791 238.622C171.703 240.645 172.01 242.448 172.715 244.032C173.418 245.571 174.605 246.803 176.277 247.726C177.948 248.606 180.302 249.046 183.336 249.046C185.448 249.046 187.273 248.87 188.812 248.518C190.351 248.166 191.781 247.749 193.101 247.264L192.375 239.743C191.363 240.096 190.351 240.381 189.34 240.601C188.372 240.776 187.361 240.865 186.305 240.865C185.073 240.865 184.106 240.689 183.402 240.337C182.698 239.985 182.192 239.502 181.885 238.886C181.621 238.226 181.51 237.457 181.555 236.577C181.642 235.696 181.819 234.752 182.083 233.74L184.986 221.6H195.872L197.851 213.552H186.899L189.406 203.325ZM79.2317 169.085C79.2317 176.372 73.3241 182.28 66.0368 182.28C58.7495 182.28 52.8419 176.372 52.8419 169.085C52.8419 161.797 58.7495 155.89 66.0368 155.89C73.3241 155.89 79.2317 161.797 79.2317 169.085ZM105.621 182.28C112.909 182.28 118.816 176.372 118.816 169.085C118.816 161.797 112.909 155.89 105.621 155.89C98.3341 155.89 92.4265 161.797 92.4265 169.085C92.4265 176.372 98.3341 182.28 105.621 182.28ZM185.035 119.912C166.117 109.302 143.334 103.111 118.816 103.111C53.2304 103.111 0.0625 147.418 0.0625 202.072C0.0625 256.726 53.2304 301.033 118.816 301.033C184.403 301.033 237.57 256.726 237.57 202.072C237.57 179.74 228.693 159.135 213.719 142.575C227.103 141.298 237.57 130.024 237.57 116.305C237.57 101.731 225.755 89.9158 211.18 89.9158C196.605 89.9158 184.791 101.731 184.791 116.305C184.791 117.529 184.874 118.733 185.035 119.912ZM224.375 202.072C224.375 247.289 179.469 287.839 118.816 287.839C58.1629 287.839 13.2574 247.289 13.2574 202.072C13.2574 156.855 58.1629 116.305 118.816 116.305C179.469 116.305 224.375 156.855 224.375 202.072Z" fill="#2D3748"/>
</svg>
